<svg width="136" height="14" viewBox="0 0 136 14" fill="none" xmlns="http://www.w3.org/2000/svg">
<path d="M7.30566 0.305664C8.0166 0.305664 8.71387 0.387695 9.39746 0.551758C10.0947 0.71582 10.7578 0.961914 11.3867 1.29004C12.0156 1.60449 12.5693 2.02832 13.0479 2.56152C13.54 3.09473 13.8066 3.73047 13.8477 4.46875V5.33008V11.8721C13.7656 12.6924 13.3145 13.1367 12.4941 13.2051C12.1113 13.2051 11.7764 13.082 11.4893 12.8359C11.2158 12.5762 11.0791 12.2549 11.0791 11.8721V5.10449C11.0518 4.68066 10.8877 4.33203 10.5869 4.05859C10.2998 3.77148 9.97168 3.5459 9.60254 3.38184C9.24707 3.21777 8.87109 3.09473 8.47461 3.0127C8.0918 2.93066 7.70215 2.88965 7.30566 2.88965C6.90918 2.88965 6.5127 2.93066 6.11621 3.0127C5.7334 3.09473 5.35742 3.21777 4.98828 3.38184C4.63281 3.5459 4.30469 3.77148 4.00391 4.05859C3.7168 4.33203 3.55957 4.68066 3.53223 5.10449V11.8721C3.46387 12.6924 3.01953 13.1367 2.19922 13.2051C1.81641 13.2051 1.48145 13.082 1.19434 12.8359C0.920898 12.5762 0.78418 12.2549 0.78418 11.8721V5.33008V4.46875C0.825195 3.73047 1.08496 3.09473 1.56348 2.56152C2.04199 2.02832 2.5957 1.60449 3.22461 1.29004C3.85352 0.961914 4.50977 0.71582 5.19336 0.551758C5.89062 0.387695 6.59473 0.305664 7.30566 0.305664ZM20.2461 0.859375H21.1895H28.1621C28.5449 0.873047 28.8594 1.0166 29.1055 1.29004C29.3652 1.56348 29.4951 1.8916 29.4951 2.27441C29.4268 3.09473 28.9824 3.53906 28.1621 3.60742H20.9434C20.4238 3.63477 19.9932 3.83301 19.6514 4.20215C19.3096 4.57129 19.0566 4.99512 18.8926 5.47363C18.7422 5.93848 18.667 6.41699 18.667 6.90918C18.667 7.40137 18.7422 7.88672 18.8926 8.36523C19.0566 8.83008 19.3096 9.24707 19.6514 9.61621C19.9932 9.98535 20.4238 10.1836 20.9434 10.2109H28.1621C28.5449 10.2246 28.8594 10.3682 29.1055 10.6416C29.3652 10.915 29.4951 11.2432 29.4951 11.626C29.4814 11.9951 29.3447 12.3096 29.085 12.5693C28.8389 12.8154 28.5312 12.9453 28.1621 12.959H20.6357H20.2461C19.2891 12.9043 18.4961 12.542 17.8672 11.8721C17.252 11.1885 16.8076 10.416 16.5342 9.55469C16.2744 8.69336 16.1445 7.81152 16.1445 6.90918C16.1445 6.00684 16.2812 5.125 16.5547 4.26367C16.8281 3.40234 17.2725 2.63672 17.8877 1.9668C18.5029 1.2832 19.2891 0.914062 20.2461 0.859375ZM29.4541 6.82715C29.4541 7.20996 29.3174 7.53125 29.0439 7.79102C28.7842 8.06445 28.4629 8.20117 28.0801 8.20117H21.8867C21.5039 8.20117 21.1758 8.07129 20.9023 7.81152C20.6426 7.53809 20.5127 7.20996 20.5127 6.82715C20.5127 6.44434 20.6426 6.11621 20.9023 5.84277C21.1758 5.58301 21.5039 5.45312 21.8867 5.45312H28.0801C28.4629 5.45312 28.7842 5.58984 29.0439 5.86328C29.3174 6.12305 29.4541 6.44434 29.4541 6.82715ZM55.3555 13.4307C54.6445 13.4307 53.9404 13.3486 53.2432 13.1846C52.5596 13.0205 51.9033 12.7812 51.2744 12.4668C50.6455 12.1387 50.0918 11.708 49.6133 11.1748C49.1348 10.6416 48.875 10.0059 48.834 9.26758V8.40625V1.86426C48.834 1.48145 48.9707 1.16699 49.2441 0.920898C49.5312 0.661133 49.8662 0.53125 50.249 0.53125C51.0693 0.599609 51.5137 1.04395 51.582 1.86426V8.63184C51.6094 9.05566 51.7666 9.41113 52.0537 9.69824C52.3545 9.97168 52.6826 10.1904 53.0381 10.3545C53.4072 10.5186 53.7832 10.6416 54.166 10.7236C54.5625 10.8057 54.959 10.8467 55.3555 10.8467C55.752 10.8467 56.1416 10.8057 56.5244 10.7236C56.9209 10.6416 57.2969 10.5186 57.6523 10.3545C58.0215 10.1904 58.3496 9.97168 58.6367 9.69824C58.9375 9.41113 59.1016 9.05566 59.1289 8.63184V1.86426C59.1289 1.48145 59.2656 1.16699 59.5391 0.920898C59.8262 0.661133 60.1611 0.53125 60.5439 0.53125C61.3643 0.599609 61.8154 1.04395 61.8975 1.86426V8.40625V9.26758C61.8564 10.0059 61.5898 10.6416 61.0977 11.1748C60.6191 11.708 60.0654 12.1387 59.4365 12.4668C58.8076 12.7812 58.1445 13.0205 57.4473 13.1846C56.7637 13.3486 56.0664 13.4307 55.3555 13.4307ZM77.8936 2.2334C77.8936 2.61621 77.7568 2.9375 77.4834 3.19727C77.2236 3.4707 76.9023 3.60742 76.5195 3.60742H68.3164C68.0566 3.62109 67.8379 3.68262 67.6602 3.79199C67.4961 3.8877 67.373 4.00391 67.291 4.14062C67.209 4.26367 67.168 4.39355 67.168 4.53027C67.168 4.66699 67.209 4.80371 67.291 4.94043C67.373 5.06348 67.4961 5.17969 67.6602 5.28906C67.8379 5.38477 68.0566 5.43945 68.3164 5.45312H74.1406C75.0977 5.48047 75.8838 5.70605 76.499 6.12988C77.1279 6.54004 77.5723 7.01855 77.832 7.56543C78.1055 8.09863 78.2422 8.64551 78.2422 9.20605C78.2422 9.75293 78.1055 10.2998 77.832 10.8467C77.5586 11.3799 77.1143 11.8584 76.499 12.2822C75.8838 12.6924 75.0977 12.8975 74.1406 12.8975H74.0176C73.9355 12.9111 73.8535 12.918 73.7715 12.918H66.0195C65.6367 12.918 65.3086 12.7881 65.0352 12.5283C64.7754 12.2549 64.6455 11.9268 64.6455 11.5439C64.6455 11.1611 64.7822 10.8398 65.0557 10.5801C65.3154 10.3066 65.6367 10.1699 66.0195 10.1699H74.2637C74.5234 10.1836 74.7354 10.1357 74.8994 10.0264C75.0771 9.91699 75.207 9.79395 75.2891 9.65723C75.3711 9.50684 75.4121 9.35645 75.4121 9.20605C75.4121 9.11035 75.3711 8.98047 75.2891 8.81641C75.207 8.63867 75.0771 8.49512 74.8994 8.38574C74.7354 8.27637 74.5234 8.21484 74.2637 8.20117H68.4395C67.4824 8.17383 66.6895 7.95508 66.0605 7.54492C65.4453 7.13477 65.001 6.66992 64.7275 6.15039C64.4678 5.61719 64.3379 5.07715 64.3379 4.53027C64.3379 3.99707 64.4746 3.4707 64.748 2.95117C65.0215 2.41797 65.4658 1.94629 66.0811 1.53613C66.6963 1.12598 67.4824 0.907227 68.4395 0.879883H68.5625C68.6445 0.866211 68.7266 0.859375 68.8086 0.859375H76.5195C76.9023 0.859375 77.2236 0.996094 77.4834 1.26953C77.7568 1.5293 77.8936 1.85059 77.8936 2.2334ZM95.7148 3.60742C95.1953 3.63477 94.7578 3.83301 94.4023 4.20215C94.0605 4.57129 93.8145 4.99512 93.6641 5.47363C93.5137 5.93848 93.4385 6.41699 93.4385 6.90918C93.4385 7.40137 93.5068 7.88672 93.6436 8.36523C93.7939 8.84375 94.0469 9.26758 94.4023 9.63672C94.7578 9.99219 95.1953 10.1836 95.7148 10.2109H102.482C103.344 10.293 103.815 10.7646 103.897 11.626C103.884 12.0088 103.74 12.3301 103.467 12.5898C103.193 12.8359 102.865 12.959 102.482 12.959H95.9404H94.9971C94.04 12.9043 93.2539 12.542 92.6387 11.8721C92.0234 11.1885 91.5791 10.416 91.3057 9.55469C91.0459 8.69336 90.916 7.81152 90.916 6.90918C90.916 6.23926 90.9912 5.57617 91.1416 4.91992C91.292 4.26367 91.5244 3.6416 91.8389 3.05371C92.167 2.45215 92.5977 1.93945 93.1309 1.51562C93.6777 1.0918 94.2998 0.873047 94.9971 0.859375H95.3867H102.482C103.344 0.941406 103.815 1.41309 103.897 2.27441C103.897 2.65723 103.754 2.97852 103.467 3.23828C103.193 3.48438 102.865 3.60742 102.482 3.60742H95.7148ZM110.398 9.78027C110.398 9.39746 110.528 9.07617 110.788 8.81641C111.062 8.54297 111.39 8.40625 111.772 8.40625H114.91L114.377 6.88867C114.158 6.32812 113.939 5.80176 113.721 5.30957C113.516 4.80371 113.276 4.3457 113.003 3.93555C112.757 3.52539 112.477 3.30664 112.162 3.2793C111.834 3.30664 111.54 3.52539 111.28 3.93555C111.021 4.3457 110.781 4.80371 110.562 5.30957C110.357 5.80176 110.146 6.32812 109.927 6.88867L107.979 12.2207C107.842 12.5078 107.664 12.7471 107.445 12.9385C107.24 13.1162 106.926 13.2051 106.502 13.2051C106.105 13.2051 105.777 13.0684 105.518 12.7949C105.271 12.5215 105.162 12.1934 105.189 11.8105C105.203 11.6328 105.244 11.4688 105.312 11.3184L107.568 5.49414C108.197 3.96289 108.826 2.72559 109.455 1.78223C110.07 0.852539 110.973 0.380859 112.162 0.367188C113.338 0.380859 114.233 0.852539 114.849 1.78223C115.478 2.69824 116.106 3.93555 116.735 5.49414L118.991 11.3184C119.06 11.4688 119.101 11.6328 119.114 11.8105C119.142 12.1934 119.025 12.5215 118.766 12.7949C118.52 13.0684 118.198 13.2051 117.802 13.2051C117.351 13.2051 117.016 13.1162 116.797 12.9385C116.592 12.7471 116.421 12.5078 116.284 12.2207L115.895 11.1543H111.772C111.39 11.1543 111.068 11.0176 110.809 10.7441C110.535 10.4844 110.398 10.1631 110.398 9.78027ZM123.934 11.9131C123.852 12.7334 123.4 13.1777 122.58 13.2461C122.197 13.2461 121.862 13.123 121.575 12.877C121.302 12.6172 121.165 12.2959 121.165 11.9131V2.19238C121.179 1.80957 121.322 1.49512 121.596 1.24902C121.869 0.989258 122.197 0.859375 122.58 0.859375H123.585H126.107H131.173C131.255 0.859375 131.337 0.866211 131.419 0.879883H131.542C132.499 0.907227 133.285 1.12598 133.9 1.53613C134.516 1.94629 134.96 2.41797 135.233 2.95117C135.507 3.4707 135.644 3.99707 135.644 4.53027C135.644 5.07715 135.507 5.61719 135.233 6.15039C134.974 6.66992 134.529 7.13477 133.9 7.54492C133.285 7.95508 132.499 8.17383 131.542 8.20117H127.933C128.042 8.88477 128.268 9.39062 128.609 9.71875C128.938 10.0469 129.354 10.2109 129.86 10.2109H134.29C134.673 10.2246 134.987 10.3682 135.233 10.6416C135.493 10.915 135.623 11.2432 135.623 11.626C135.609 11.9951 135.473 12.3096 135.213 12.5693C134.967 12.8154 134.659 12.9453 134.29 12.959H129.491C128.479 12.9727 127.563 12.5762 126.743 11.7695C125.923 10.9629 125.424 10.0059 125.246 8.89844C125 7.66797 124.877 6.97754 124.877 6.82715C124.877 6.44434 125.007 6.12305 125.267 5.86328C125.54 5.58984 125.868 5.45312 126.251 5.45312H131.665C131.925 5.43945 132.137 5.38477 132.301 5.28906C132.479 5.17969 132.608 5.06348 132.69 4.94043C132.772 4.80371 132.813 4.66699 132.813 4.53027C132.813 4.39355 132.772 4.26367 132.69 4.14062C132.608 4.00391 132.479 3.8877 132.301 3.79199C132.137 3.68262 131.925 3.62109 131.665 3.60742H126.107H124.467C124.111 3.62109 123.934 3.79883 123.934 4.14062V11.9131Z" fill="#F4F5F6"/>
<path d="M37.2266 6.62207C36.8574 5.9248 36.3926 5.26172 35.832 4.63281C35.2715 4.00391 34.7314 3.66211 34.2119 3.60742H32.4893C32.1064 3.60742 31.7852 3.4707 31.5254 3.19727C31.252 2.9375 31.1152 2.61621 31.1152 2.2334C31.1152 1.85059 31.2451 1.5293 31.5049 1.26953C31.7783 0.996094 32.1064 0.859375 32.4893 0.859375H34.2119V0.879883H34.417C35.4014 0.93457 36.4199 1.48828 37.4727 2.54102C37.9922 3.07422 38.4707 3.67578 38.9082 4.3457C39.3457 3.67578 39.8311 3.07422 40.3643 2.54102C41.4033 1.48828 42.415 0.93457 43.3994 0.879883H43.6045V0.859375H45.3271C45.71 0.859375 46.0312 0.996094 46.291 1.26953C46.5645 1.5293 46.7012 1.85059 46.7012 2.2334C46.7012 2.61621 46.5645 2.9375 46.291 3.19727C46.0312 3.4707 45.71 3.60742 45.3271 3.60742H43.6045C43.085 3.66211 42.5449 4.00391 41.9844 4.63281C41.4238 5.26172 40.959 5.9248 40.5898 6.62207C40.5078 6.77246 40.4258 6.91602 40.3438 7.05273C40.3711 7.09375 40.3984 7.13477 40.4258 7.17578C40.7949 7.88672 41.2598 8.55664 41.8203 9.18555C42.3809 9.81445 42.9209 10.1494 43.4404 10.1904H45.1631C45.5459 10.1904 45.8672 10.3271 46.127 10.6006C46.4004 10.8604 46.5371 11.1816 46.5371 11.5645C46.5371 11.9473 46.4004 12.2754 46.127 12.5488C45.8672 12.8086 45.5459 12.9385 45.1631 12.9385H43.2354C42.251 12.8838 41.2393 12.3369 40.2002 11.2979C39.7354 10.8193 39.3047 10.2998 38.9082 9.73926C38.5117 10.2998 38.0811 10.8193 37.6162 11.2979C36.5771 12.3369 35.5654 12.8838 34.5811 12.9385H32.6533C32.2705 12.9385 31.9424 12.8086 31.6689 12.5488C31.4092 12.2754 31.2793 11.9473 31.2793 11.5645C31.2793 11.1816 31.416 10.8604 31.6895 10.6006C31.9492 10.3271 32.2705 10.1904 32.6533 10.1904H34.376C34.8955 10.1494 35.4355 9.81445 35.9961 9.18555C36.5566 8.55664 37.0215 7.88672 37.3906 7.17578C37.418 7.13477 37.4453 7.09375 37.4727 7.05273C37.3906 6.91602 37.3086 6.77246 37.2266 6.62207Z" fill="#FF7A00"/>
</svg>
