<svg width="241" height="177" viewBox="0 0 241 177" fill="none" xmlns="http://www.w3.org/2000/svg">
<path d="M94.5374 84.8608C88.8597 74.7044 81.7099 65.0458 73.0883 55.885C64.4665 46.7243 56.1602 41.7458 48.1695 40.9491H21.6736C15.7856 40.9491 10.8439 38.9576 6.84864 34.9748C2.64287 31.1909 0.540039 26.5111 0.540039 20.9351C0.540039 15.359 2.53774 10.6791 6.53311 6.89526C10.7387 2.91242 15.7856 0.920898 21.6736 0.920898H48.1695V1.21971H51.3238C66.4643 2.01617 82.1304 10.0817 98.3225 25.4158C106.313 33.1825 113.673 41.9448 120.402 51.703C127.131 41.9448 134.597 33.1825 142.798 25.4158C158.779 10.0817 174.34 2.01617 189.481 1.21971H192.635V0.920898H219.131C225.019 0.920898 229.961 2.91242 233.956 6.89526C238.161 10.6791 240.265 15.359 240.265 20.9351C240.265 26.5111 238.161 31.1909 233.956 34.9748C229.961 38.9576 225.019 40.9491 219.131 40.9491H192.635C184.644 41.7458 176.338 46.7243 167.716 55.885C159.095 65.0458 151.945 74.7044 146.267 84.8608C145.006 87.0513 143.744 89.1423 142.482 91.1338C142.903 91.7312 143.323 92.3287 143.744 92.9261C149.422 103.282 156.571 113.04 165.193 122.2C173.815 131.361 182.121 136.24 190.111 136.839H216.607C222.496 136.839 227.438 138.829 231.433 142.813C235.638 146.596 237.741 151.276 237.741 156.851C237.741 162.428 235.638 167.207 231.433 171.19C227.438 174.973 222.496 176.866 216.607 176.866H186.957C171.817 176.069 156.256 168.104 140.274 152.968C133.124 145.998 126.501 138.431 120.402 130.266C114.304 138.431 107.68 145.998 100.53 152.968C84.5487 168.104 68.9877 176.069 53.8472 176.866H24.197C18.309 176.866 13.2622 174.973 9.05653 171.19C5.06115 167.207 3.06346 162.428 3.06346 156.851C3.06346 151.276 5.16629 146.596 9.37206 142.813C13.3673 138.829 18.309 136.839 24.197 136.839H50.6929C58.6837 136.24 66.9899 131.361 75.6118 122.2C84.2334 113.04 91.3831 103.282 97.0608 92.9261C97.4813 92.3287 97.9018 91.7312 98.3225 91.1338C97.0608 89.1423 95.7991 87.0513 94.5374 84.8608Z" fill="#FF7A00"/>
<path d="M112.422 89.2533C110.719 86.2063 108.574 83.3087 105.988 80.5605C103.401 77.8123 100.909 76.3188 98.5119 76.0799H90.5632C88.7968 76.0799 87.3142 75.4824 86.1157 74.2876C84.854 73.1523 84.2231 71.7483 84.2231 70.0755C84.2231 68.4027 84.8225 66.9988 86.021 65.8636C87.2827 64.6687 88.7968 64.0713 90.5632 64.0713H98.5119V64.1609H99.4583C104 64.3999 108.7 66.8195 113.558 71.4199C115.955 73.7498 118.163 76.3785 120.182 79.306C122.201 76.3785 124.44 73.7498 126.9 71.4199C131.695 66.8195 136.363 64.3999 140.905 64.1609H141.852V64.0713H149.8C151.567 64.0713 153.049 64.6687 154.248 65.8636C155.51 66.9988 156.141 68.4027 156.141 70.0755C156.141 71.7483 155.51 73.1523 154.248 74.2876C153.049 75.4824 151.567 76.0799 149.8 76.0799H141.852C139.454 76.3188 136.963 77.8123 134.376 80.5605C131.79 83.3087 129.645 86.2063 127.941 89.2533C127.563 89.9104 127.184 90.5378 126.806 91.1353C126.932 91.3144 127.058 91.4937 127.184 91.6728C128.888 94.7795 131.033 97.7071 133.619 100.455C136.206 103.203 138.697 104.667 141.095 104.846H149.043C150.81 104.846 152.292 105.443 153.491 106.638C154.753 107.773 155.383 109.179 155.383 110.851C155.383 112.524 154.753 113.958 153.491 115.153C152.292 116.287 150.81 116.854 149.043 116.854H140.148C135.606 116.615 130.938 114.226 126.143 109.685C123.998 107.594 122.011 105.324 120.182 102.875C118.352 105.324 116.365 107.594 114.22 109.685C109.426 114.226 104.758 116.615 100.215 116.854H91.3202C89.5538 116.854 88.0398 116.287 86.7781 115.153C85.5795 113.958 84.9802 112.524 84.9802 110.851C84.9802 109.179 85.611 107.773 86.8727 106.638C88.0713 105.443 89.5538 104.846 91.3202 104.846H99.269C101.666 104.667 104.158 103.203 106.745 100.455C109.331 97.7071 111.476 94.7795 113.179 91.6728C113.305 91.4937 113.432 91.3144 113.558 91.1353C113.179 90.5378 112.801 89.9104 112.422 89.2533Z" fill="black"/>
</svg>
