<svg width="361" height="265" viewBox="0 0 361 265" fill="none" xmlns="http://www.w3.org/2000/svg">
<path d="M141.856 126.125C133.333 110.88 122.602 96.3829 109.661 82.6328C96.7199 68.8827 84.2523 61.4101 72.2584 60.2143H32.4886C23.6508 60.2143 16.2335 57.2251 10.2367 51.2469C3.92389 45.5675 0.767578 38.5431 0.767578 30.1737C0.767578 21.8041 3.76608 14.7796 9.76305 9.1002C16.0756 3.12204 23.6508 0.132812 32.4886 0.132812H72.2584V0.581324H76.9929C99.7184 1.77678 123.233 13.8829 147.537 36.8991C159.531 48.5567 170.578 61.7088 180.678 76.3556C190.779 61.7088 201.983 48.5567 214.293 36.8991C238.281 13.8829 261.638 1.77678 284.365 0.581324H289.098V0.132812H328.867C337.706 0.132812 345.124 3.12204 351.12 9.1002C357.432 14.7796 360.589 21.8041 360.589 30.1737C360.589 38.5431 357.432 45.5675 351.12 51.2469C345.124 57.2251 337.706 60.2143 328.867 60.2143H289.098C277.104 61.4101 264.637 68.8827 251.696 82.6328C238.755 96.3829 228.023 110.88 219.501 126.125C217.607 129.413 215.714 132.551 213.82 135.54C214.451 136.437 215.082 137.334 215.714 138.231C224.236 153.774 234.967 168.422 247.908 182.17C260.849 195.921 273.317 203.244 285.31 204.142H325.08C333.918 204.142 341.336 207.129 347.333 213.11C353.644 218.788 356.802 225.813 356.802 234.181C356.802 242.551 353.644 249.725 347.333 255.703C341.336 261.381 333.918 264.222 325.08 264.222H280.576C257.85 263.026 234.494 251.071 210.506 228.353C199.774 217.89 189.832 206.533 180.678 194.277C171.525 206.533 161.583 217.89 150.851 228.353C126.863 251.071 103.506 263.026 80.7804 264.222H36.2762C27.4384 264.222 19.8632 261.381 13.5506 255.703C7.55367 249.725 4.55517 242.551 4.55517 234.181C4.55517 225.813 7.71148 218.788 14.0242 213.11C20.0211 207.129 27.4384 204.142 36.2762 204.142H76.046C88.0399 203.244 100.507 195.921 113.449 182.17C126.389 168.422 137.121 153.774 145.643 138.231C146.274 137.334 146.905 136.437 147.537 135.54C145.643 132.551 143.749 129.413 141.856 126.125Z" fill="#FF7A00"/>
<path d="M168.7 132.718C166.144 128.144 162.924 123.795 159.042 119.67C155.16 115.545 151.419 113.304 147.821 112.945H135.89C133.239 112.945 131.014 112.048 129.215 110.255C127.321 108.551 126.374 106.443 126.374 103.932C126.374 101.422 127.274 99.3145 129.073 97.6105C130.966 95.817 133.239 94.9203 135.89 94.9203H147.821V95.0549H149.242C156.059 95.4136 163.114 99.0453 170.405 105.95C174.003 109.447 177.317 113.393 180.347 117.787C183.377 113.393 186.739 109.447 190.432 105.95C197.628 99.0453 204.635 95.4136 211.453 95.0549H212.873V94.9203H224.804C227.456 94.9203 229.68 95.817 231.48 97.6105C233.374 99.3145 234.32 101.422 234.32 103.932C234.32 106.443 233.374 108.551 231.48 110.255C229.68 112.048 227.456 112.945 224.804 112.945H212.873C209.275 113.304 205.535 115.545 201.652 119.67C197.77 123.795 194.551 128.144 191.994 132.718C191.426 133.704 190.858 134.646 190.29 135.543C190.479 135.812 190.668 136.081 190.858 136.35C193.414 141.013 196.634 145.407 200.516 149.532C204.398 153.657 208.139 155.853 211.737 156.123H223.668C226.319 156.123 228.544 157.018 230.343 158.812C232.237 160.516 233.184 162.625 233.184 165.136C233.184 167.647 232.237 169.799 230.343 171.593C228.544 173.294 226.319 174.147 223.668 174.147H210.317C203.499 173.788 196.492 170.201 189.295 163.386C186.076 160.247 183.093 156.84 180.347 153.164C177.601 156.84 174.619 160.247 171.399 163.386C164.203 170.201 157.196 173.788 150.378 174.147H137.027C134.375 174.147 132.103 173.294 130.209 171.593C128.41 169.799 127.51 167.647 127.51 165.136C127.51 162.625 128.457 160.516 130.351 158.812C132.15 157.018 134.375 156.123 137.027 156.123H148.957C152.556 155.853 156.296 153.657 160.178 149.532C164.061 145.407 167.28 141.013 169.837 136.35C170.026 136.081 170.215 135.812 170.405 135.543C169.837 134.646 169.268 133.704 168.7 132.718Z" fill="black"/>
</svg>
